<svg width="139" height="28" viewBox="0 0 139 28" fill="none" xmlns="http://www.w3.org/2000/svg">
<rect opacity="0.1" width="139" height="28" rx="14" fill="#F65F5F"/>
<path d="M32.4498 19V8.81818H35.8901C36.6889 8.81818 37.3418 8.96236 37.8489 9.25071C38.3593 9.53575 38.7372 9.92188 38.9824 10.4091C39.2277 10.8963 39.3503 11.4399 39.3503 12.0398C39.3503 12.6397 39.2277 13.1849 38.9824 13.6754C38.7405 14.166 38.3659 14.5571 37.8588 14.8487C37.3517 15.1371 36.7021 15.2812 35.91 15.2812H33.4441V14.1875H35.8702C36.4171 14.1875 36.8562 14.093 37.1877 13.9041C37.5191 13.7152 37.7594 13.46 37.9086 13.1385C38.061 12.8137 38.1373 12.4474 38.1373 12.0398C38.1373 11.6321 38.061 11.2675 37.9086 10.946C37.7594 10.6245 37.5175 10.3726 37.1827 10.1903C36.848 10.0047 36.4038 9.91193 35.8503 9.91193H33.6827V19H32.4498ZM44.2971 19.1591C43.5613 19.1591 42.9266 18.9967 42.3929 18.6719C41.8626 18.3438 41.4533 17.8864 41.165 17.2997C40.8799 16.7098 40.7374 16.0237 40.7374 15.2415C40.7374 14.4593 40.8799 13.7699 41.165 13.1733C41.4533 12.5734 41.8543 12.1061 42.3681 11.7713C42.8851 11.4332 43.4883 11.2642 44.1777 11.2642C44.5755 11.2642 44.9682 11.3305 45.356 11.4631C45.7438 11.5956 46.0968 11.8111 46.415 12.1094C46.7331 12.4044 46.9867 12.7955 47.1756 13.2827C47.3645 13.7699 47.459 14.3698 47.459 15.0824V15.5795H41.5726V14.5653H46.2658C46.2658 14.1345 46.1796 13.75 46.0073 13.4119C45.8382 13.0739 45.5963 12.8071 45.2814 12.6115C44.9699 12.416 44.602 12.3182 44.1777 12.3182C43.7104 12.3182 43.306 12.4342 42.9647 12.6662C42.6266 12.8949 42.3664 13.1932 42.1841 13.5611C42.0018 13.929 41.9107 14.3234 41.9107 14.7443V15.4205C41.9107 15.9972 42.0101 16.486 42.209 16.8871C42.4112 17.2848 42.6912 17.5881 43.0492 17.7969C43.4071 18.0024 43.8231 18.1051 44.2971 18.1051C44.6053 18.1051 44.8837 18.062 45.1323 17.9759C45.3842 17.8864 45.6013 17.7538 45.7836 17.5781C45.9659 17.3991 46.1067 17.1771 46.2061 16.9119L47.3397 17.2301C47.2203 17.6146 47.0198 17.9527 46.7381 18.2443C46.4564 18.5327 46.1084 18.758 45.6941 18.9205C45.2798 19.0795 44.8141 19.1591 44.2971 19.1591ZM52.3461 19.1591C51.6567 19.1591 51.0518 18.995 50.5314 18.6669C50.0144 18.3388 49.61 17.8797 49.3184 17.2898C49.03 16.6998 48.8858 16.0104 48.8858 15.2216C48.8858 14.4261 49.03 13.7318 49.3184 13.1385C49.61 12.5452 50.0144 12.0845 50.5314 11.7564C51.0518 11.4283 51.6567 11.2642 52.3461 11.2642C53.0355 11.2642 53.6387 11.4283 54.1557 11.7564C54.6761 12.0845 55.0804 12.5452 55.3688 13.1385C55.6605 13.7318 55.8063 14.4261 55.8063 15.2216C55.8063 16.0104 55.6605 16.6998 55.3688 17.2898C55.0804 17.8797 54.6761 18.3388 54.1557 18.6669C53.6387 18.995 53.0355 19.1591 52.3461 19.1591ZM52.3461 18.1051C52.8697 18.1051 53.3006 17.9709 53.6387 17.7024C53.9767 17.4339 54.227 17.081 54.3894 16.6435C54.5518 16.206 54.633 15.732 54.633 15.2216C54.633 14.7112 54.5518 14.2356 54.3894 13.7947C54.227 13.3539 53.9767 12.9976 53.6387 12.7259C53.3006 12.4541 52.8697 12.3182 52.3461 12.3182C51.8224 12.3182 51.3915 12.4541 51.0534 12.7259C50.7154 12.9976 50.4651 13.3539 50.3027 13.7947C50.1403 14.2356 50.0591 14.7112 50.0591 15.2216C50.0591 15.732 50.1403 16.206 50.3027 16.6435C50.4651 17.081 50.7154 17.4339 51.0534 17.7024C51.3915 17.9709 51.8224 18.1051 52.3461 18.1051ZM57.5973 21.8636V11.3636H58.7308V12.5767H58.87C58.9562 12.4441 59.0755 12.2751 59.228 12.0696C59.3838 11.8608 59.6058 11.6752 59.8942 11.5128C60.1858 11.3471 60.5803 11.2642 61.0774 11.2642C61.7204 11.2642 62.2872 11.425 62.7777 11.7464C63.2682 12.0679 63.651 12.5237 63.9261 13.1136C64.2012 13.7036 64.3388 14.3996 64.3388 15.2017C64.3388 16.0104 64.2012 16.7114 63.9261 17.3047C63.651 17.8946 63.2699 18.352 62.7827 18.6768C62.2955 18.9983 61.7337 19.1591 61.0973 19.1591C60.6068 19.1591 60.214 19.0779 59.919 18.9155C59.6241 18.7498 59.397 18.5625 59.2379 18.3537C59.0788 18.1416 58.9562 17.9659 58.87 17.8267H58.7706V21.8636H57.5973ZM58.7507 15.1818C58.7507 15.7585 58.8352 16.2673 59.0043 16.7081C59.1733 17.1456 59.4202 17.4886 59.745 17.7372C60.0698 17.9825 60.4676 18.1051 60.9382 18.1051C61.4287 18.1051 61.8381 17.9759 62.1662 17.7173C62.4976 17.4555 62.7462 17.1042 62.9119 16.6634C63.081 16.2192 63.1655 15.7254 63.1655 15.1818C63.1655 14.6449 63.0826 14.161 62.9169 13.7301C62.7545 13.2959 62.5076 12.9529 62.1761 12.701C61.848 12.4458 61.4354 12.3182 60.9382 12.3182C60.4609 12.3182 60.0599 12.4392 59.7351 12.6811C59.4103 12.9197 59.165 13.2545 58.9993 13.6854C58.8336 14.1129 58.7507 14.6117 58.7507 15.1818ZM67.3018 8.81818V19H66.1286V8.81818H67.3018ZM72.6525 19.1591C71.9167 19.1591 71.282 18.9967 70.7484 18.6719C70.2181 18.3438 69.8088 17.8864 69.5204 17.2997C69.2354 16.7098 69.0929 16.0237 69.0929 15.2415C69.0929 14.4593 69.2354 13.7699 69.5204 13.1733C69.8088 12.5734 70.2098 12.1061 70.7235 11.7713C71.2406 11.4332 71.8438 11.2642 72.5332 11.2642C72.9309 11.2642 73.3237 11.3305 73.7115 11.4631C74.0993 11.5956 74.4522 11.8111 74.7704 12.1094C75.0886 12.4044 75.3422 12.7955 75.5311 13.2827C75.72 13.7699 75.8145 14.3698 75.8145 15.0824V15.5795H69.9281V14.5653H74.6213C74.6213 14.1345 74.5351 13.75 74.3627 13.4119C74.1937 13.0739 73.9518 12.8071 73.6369 12.6115C73.3253 12.416 72.9574 12.3182 72.5332 12.3182C72.0659 12.3182 71.6615 12.4342 71.3201 12.6662C70.9821 12.8949 70.7219 13.1932 70.5396 13.5611C70.3573 13.929 70.2662 14.3234 70.2662 14.7443V15.4205C70.2662 15.9972 70.3656 16.486 70.5645 16.8871C70.7666 17.2848 71.0467 17.5881 71.4047 17.7969C71.7626 18.0024 72.1786 18.1051 72.6525 18.1051C72.9608 18.1051 73.2392 18.062 73.4877 17.9759C73.7396 17.8864 73.9567 17.7538 74.139 17.5781C74.3213 17.3991 74.4622 17.1771 74.5616 16.9119L75.6951 17.2301C75.5758 17.6146 75.3753 17.9527 75.0936 18.2443C74.8118 18.5327 74.4638 18.758 74.0495 18.9205C73.6352 19.0795 73.1696 19.1591 72.6525 19.1591ZM81.139 9.91193V8.81818H88.7754V9.91193H85.5737V19H84.3407V9.91193H81.139ZM89.7262 19V11.3636H90.8597V12.517H90.9393C91.0785 12.1392 91.3304 11.8326 91.695 11.5973C92.0595 11.362 92.4705 11.2443 92.9279 11.2443C93.0141 11.2443 93.1218 11.246 93.2511 11.2493C93.3803 11.2526 93.4781 11.2576 93.5444 11.2642V12.4574C93.5046 12.4474 93.4135 12.4325 93.271 12.4126C93.1317 12.3894 92.9843 12.3778 92.8285 12.3778C92.4573 12.3778 92.1258 12.4557 91.8342 12.6115C91.5458 12.764 91.3171 12.9761 91.1481 13.2479C90.9824 13.5163 90.8995 13.8229 90.8995 14.1676V19H89.7262ZM99.7477 15.8778V11.3636H100.921V19H99.7477V17.7074H99.6681C99.4892 18.0952 99.2108 18.425 98.8329 18.6967C98.4551 18.9652 97.9778 19.0994 97.4011 19.0994C96.9238 19.0994 96.4996 18.995 96.1284 18.7862C95.7572 18.5741 95.4655 18.2559 95.2534 17.8317C95.0413 17.4041 94.9352 16.8655 94.9352 16.2159V11.3636H96.1085V16.1364C96.1085 16.6932 96.2643 17.1373 96.5758 17.4688C96.8907 17.8002 97.2917 17.9659 97.7789 17.9659C98.0706 17.9659 98.3672 17.8913 98.6689 17.7422C98.9738 17.593 99.229 17.3643 99.4345 17.0561C99.6433 16.7479 99.7477 16.3551 99.7477 15.8778ZM108.479 13.0739L107.425 13.3722C107.359 13.1965 107.261 13.0258 107.132 12.8601C107.006 12.6911 106.833 12.5518 106.615 12.4425C106.396 12.3331 106.116 12.2784 105.775 12.2784C105.307 12.2784 104.918 12.3861 104.606 12.6016C104.298 12.8137 104.144 13.0838 104.144 13.4119C104.144 13.7036 104.25 13.9339 104.462 14.103C104.674 14.272 105.006 14.4129 105.456 14.5256L106.59 14.804C107.273 14.9697 107.781 15.2232 108.116 15.5646C108.451 15.9027 108.618 16.3385 108.618 16.8722C108.618 17.3097 108.492 17.7008 108.24 18.0455C107.992 18.3902 107.644 18.6619 107.196 18.8608C106.749 19.0597 106.229 19.1591 105.635 19.1591C104.856 19.1591 104.212 18.9901 103.701 18.652C103.191 18.3139 102.868 17.8201 102.732 17.1705L103.846 16.892C103.952 17.303 104.152 17.6113 104.447 17.8168C104.745 18.0223 105.135 18.125 105.615 18.125C106.162 18.125 106.596 18.009 106.918 17.777C107.243 17.5417 107.405 17.2599 107.405 16.9318C107.405 16.6667 107.312 16.4446 107.127 16.2656C106.941 16.0833 106.656 15.9474 106.272 15.858L104.999 15.5597C104.3 15.3939 103.786 15.1371 103.458 14.7891C103.133 14.4377 102.971 13.9986 102.971 13.4716C102.971 13.0407 103.092 12.6596 103.333 12.3281C103.579 11.9967 103.912 11.7365 104.333 11.5476C104.757 11.3587 105.238 11.2642 105.775 11.2642C106.53 11.2642 107.123 11.4299 107.554 11.7614C107.989 12.0928 108.297 12.5303 108.479 13.0739ZM113.705 11.3636V12.358H109.748V11.3636H113.705ZM110.901 9.53409H112.075V16.8125C112.075 17.1439 112.123 17.3925 112.219 17.5582C112.318 17.7206 112.444 17.83 112.597 17.8864C112.753 17.9394 112.917 17.9659 113.089 17.9659C113.218 17.9659 113.324 17.9593 113.407 17.946C113.49 17.9295 113.556 17.9162 113.606 17.9062L113.845 18.9602C113.765 18.9901 113.654 19.0199 113.512 19.0497C113.369 19.0829 113.188 19.0994 112.97 19.0994C112.638 19.0994 112.313 19.0282 111.995 18.8857C111.68 18.7431 111.419 18.526 111.21 18.2344C111.004 17.9427 110.901 17.5748 110.901 17.1307V9.53409ZM124.22 15.8778V11.3636H125.394V19H124.22V17.7074H124.141C123.962 18.0952 123.683 18.425 123.306 18.6967C122.928 18.9652 122.45 19.0994 121.874 19.0994C121.396 19.0994 120.972 18.995 120.601 18.7862C120.23 18.5741 119.938 18.2559 119.726 17.8317C119.514 17.4041 119.408 16.8655 119.408 16.2159V11.3636H120.581V16.1364C120.581 16.6932 120.737 17.1373 121.048 17.4688C121.363 17.8002 121.764 17.9659 122.252 17.9659C122.543 17.9659 122.84 17.8913 123.142 17.7422C123.446 17.593 123.702 17.3643 123.907 17.0561C124.116 16.7479 124.22 16.3551 124.22 15.8778ZM132.952 13.0739L131.898 13.3722C131.831 13.1965 131.734 13.0258 131.604 12.8601C131.478 12.6911 131.306 12.5518 131.087 12.4425C130.869 12.3331 130.589 12.2784 130.247 12.2784C129.78 12.2784 129.39 12.3861 129.079 12.6016C128.771 12.8137 128.616 13.0838 128.616 13.4119C128.616 13.7036 128.723 13.9339 128.935 14.103C129.147 14.272 129.478 14.4129 129.929 14.5256L131.062 14.804C131.745 14.9697 132.254 15.2232 132.589 15.5646C132.924 15.9027 133.091 16.3385 133.091 16.8722C133.091 17.3097 132.965 17.7008 132.713 18.0455C132.464 18.3902 132.116 18.6619 131.669 18.8608C131.222 19.0597 130.701 19.1591 130.108 19.1591C129.329 19.1591 128.684 18.9901 128.174 18.652C127.664 18.3139 127.34 17.8201 127.205 17.1705L128.318 16.892C128.424 17.303 128.625 17.6113 128.92 17.8168C129.218 18.0223 129.607 18.125 130.088 18.125C130.635 18.125 131.069 18.009 131.391 17.777C131.715 17.5417 131.878 17.2599 131.878 16.9318C131.878 16.6667 131.785 16.4446 131.599 16.2656C131.414 16.0833 131.129 15.9474 130.744 15.858L129.472 15.5597C128.772 15.3939 128.259 15.1371 127.93 14.7891C127.606 14.4377 127.443 13.9986 127.443 13.4716C127.443 13.0407 127.564 12.6596 127.806 12.3281C128.051 11.9967 128.384 11.7365 128.805 11.5476C129.23 11.3587 129.71 11.2642 130.247 11.2642C131.003 11.2642 131.596 11.4299 132.027 11.7614C132.461 12.0928 132.769 12.5303 132.952 13.0739Z" fill="white"/>
<circle cx="15" cy="14" r="10" fill="#F65F5F"/>
<path d="M21.6613 11.4592C21.4441 10.9779 21.1309 10.5418 20.7392 10.1753C20.3472 9.80769 19.8851 9.51555 19.3779 9.31477C18.852 9.10575 18.288 8.99876 17.7185 9.00001C16.9195 9.00001 16.1401 9.20933 15.4627 9.60472C15.3006 9.6993 15.1467 9.80319 15.0008 9.91638C14.855 9.80319 14.701 9.6993 14.5389 9.60472C13.8616 9.20933 13.0821 9.00001 12.2831 9.00001C11.7078 9.00001 11.1504 9.10545 10.6237 9.31477C10.1148 9.51634 9.65621 9.80629 9.26241 10.1753C8.87023 10.5414 8.55695 10.9776 8.34032 11.4592C8.11506 11.96 8 12.4918 8 13.0392C8 13.5555 8.1102 14.0935 8.32897 14.6409C8.5121 15.0983 8.77463 15.5727 9.11008 16.0519C9.64162 16.8101 10.3725 17.6008 11.28 18.4025C12.7839 19.7313 14.2732 20.6492 14.3364 20.6864L14.7204 20.9221C14.8906 21.026 15.1094 21.026 15.2795 20.9221L15.6636 20.6864C15.7268 20.6476 17.2145 19.7313 18.72 18.4025C19.6275 17.6008 20.3584 16.8101 20.8899 16.0519C21.2254 15.5727 21.4895 15.0983 21.671 14.6409C21.8898 14.0935 22 13.5555 22 13.0392C22.0016 12.4918 21.8865 11.96 21.6613 11.4592Z" fill="#FDCE77"/>
</svg>
